<svg width="56" height="59" viewBox="0 0 56 59" fill="none" xmlns="http://www.w3.org/2000/svg">
<path d="M0 10.61C0 5.08719 4.47715 0.610046 10 0.610046H46C51.5229 0.610046 56 5.0872 56 10.61V28.9151C56 45.4836 42.5685 58.9151 26 58.9151H10C4.47715 58.9151 0 54.4379 0 48.9151V10.61Z" fill="#4C5EFE"/>
<path d="M19.2046 22.278C19.3246 19.878 20.1646 18.03 21.7246 16.734C23.3086 15.414 25.3846 14.754 27.9526 14.754C29.7046 14.754 31.2046 15.066 32.4526 15.69C33.7006 16.29 34.6366 17.118 35.2606 18.174C35.9086 19.206 36.2326 20.382 36.2326 21.702C36.2326 23.214 35.8366 24.498 35.0446 25.554C34.2766 26.586 33.3526 27.282 32.2726 27.642V27.786C33.6646 28.218 34.7446 28.986 35.5126 30.09C36.3046 31.194 36.7006 32.61 36.7006 34.338C36.7006 35.778 36.3646 37.062 35.6926 38.19C35.0446 39.318 34.0726 40.206 32.7766 40.854C31.5046 41.478 29.9686 41.79 28.1686 41.79C25.4566 41.79 23.2486 41.106 21.5446 39.738C19.8406 38.37 18.9406 36.354 18.8446 33.69H23.7406C23.7886 34.866 24.1846 35.814 24.9286 36.534C25.6966 37.23 26.7406 37.578 28.0606 37.578C29.2846 37.578 30.2206 37.242 30.8686 36.57C31.5406 35.874 31.8766 34.986 31.8766 33.906C31.8766 32.466 31.4206 31.434 30.5086 30.81C29.5966 30.186 28.1806 29.874 26.2606 29.874H25.2166V25.734H26.2606C29.6686 25.734 31.3726 24.594 31.3726 22.314C31.3726 21.282 31.0606 20.478 30.4366 19.902C29.8366 19.326 28.9606 19.038 27.8086 19.038C26.6806 19.038 25.8046 19.35 25.1806 19.974C24.5806 20.574 24.2326 21.342 24.1366 22.278H19.2046Z" fill="white"/>
</svg>
