<svg width="56" height="59" viewBox="0 0 56 59" fill="none" xmlns="http://www.w3.org/2000/svg">
<path d="M0 10.305C0 4.78217 4.47715 0.305023 10 0.305023H46C51.5229 0.305023 56 4.78218 56 10.305V28.6101C56 45.1786 42.5685 58.61 26 58.61H10C4.47715 58.61 0 54.1329 0 48.61V10.305Z" fill="#4C5EFE"/>
<path d="M21.1561 35.617C23.4601 33.697 25.2961 32.101 26.6641 30.829C28.0321 29.533 29.1721 28.189 30.0841 26.797C30.9961 25.405 31.4521 24.037 31.4521 22.693C31.4521 21.469 31.1641 20.509 30.5881 19.813C30.0121 19.117 29.1241 18.769 27.9241 18.769C26.7241 18.769 25.8001 19.177 25.1521 19.993C24.5041 20.785 24.1681 21.877 24.1441 23.269H19.2481C19.3441 20.389 20.1961 18.205 21.8041 16.717C23.4361 15.229 25.5001 14.485 27.9961 14.485C30.7321 14.485 32.8321 15.217 34.2961 16.681C35.7601 18.121 36.4921 20.029 36.4921 22.405C36.4921 24.277 35.9881 26.065 34.9801 27.769C33.9721 29.473 32.8201 30.961 31.5241 32.233C30.2281 33.481 28.5361 34.993 26.4481 36.769H37.0681V40.945H19.2841V37.201L21.1561 35.617Z" fill="white"/>
</svg>
