<svg width="726" height="292" viewBox="0 0 726 292" fill="none" xmlns="http://www.w3.org/2000/svg">
<path d="M6.25651 65.5567C4.19094 53.235 12.5052 41.5718 24.8268 39.5063L226.583 5.68453C238.904 3.61897 250.568 11.9332 252.633 24.2549L286.454 226.007C288.52 238.331 280.205 249.996 267.881 252.062L114.089 277.843C75.2797 284.349 38.5442 258.162 32.0382 219.352L6.25651 65.5567Z" fill="white"/>
<path d="M136.128 88.3085L172.882 82.1472L184.121 149.19L184.4 150.855L186.065 150.576L196.235 148.871L200.968 177.101L190.798 178.805L189.133 179.085L189.412 180.75L192.164 197.166L158.674 202.78L155.922 186.364L155.643 184.699L153.978 184.978L104.194 193.323L99.4641 165.105L136.128 88.3085ZM149.044 127.187L148.108 121.602L145.833 126.787L132.627 156.885L131.372 159.745L134.452 159.228L152.205 156.252L153.87 155.973L153.591 154.308L149.044 127.187Z" fill="#4C5EFE" stroke="#4C5EFE" stroke-width="3.37662"/>
<path d="M6.25651 65.5567C4.19094 53.235 12.5052 41.5718 24.8268 39.5063L226.583 5.68453C238.904 3.61897 250.568 11.9332 252.633 24.2549L286.454 226.007C288.52 238.331 280.205 249.996 267.881 252.062L114.089 277.843C75.2797 284.349 38.5442 258.162 32.0382 219.352L6.25651 65.5567Z" stroke="#4C5EFE" stroke-width="3.37662"/>
<path d="M239.261 59.7633C239.261 47.2688 249.389 37.14 261.884 37.14L417.82 37.14C457.173 37.14 489.075 69.042 489.075 108.395V264.329C489.075 276.825 478.945 286.955 466.45 286.955H261.886C249.39 286.955 239.261 276.825 239.261 264.329L239.261 59.7633Z" fill="white"/>
<path d="M399.596 119.155L399.601 119.162C407.279 129.434 411.216 143.625 411.216 161.919C411.216 180.32 407.28 194.62 399.599 205.002C392.024 215.135 380.421 220.312 364.452 220.312C348.374 220.312 336.721 215.134 329.148 205.007C321.572 194.625 317.688 180.322 317.688 161.919C317.688 143.513 321.573 129.268 329.146 118.996C336.719 108.867 348.372 103.688 364.452 103.688C380.416 103.688 392.018 108.915 399.596 119.155ZM352.22 182.237L352.223 182.244L352.225 182.25C353.206 184.702 354.748 186.624 356.875 187.912C358.982 189.19 361.541 189.772 364.452 189.772C367.315 189.772 369.837 189.187 371.918 187.906C374.016 186.615 375.54 184.695 376.518 182.25L376.52 182.244L376.523 182.237C378.362 177.526 379.223 170.704 379.223 161.919C379.223 153.247 378.363 146.528 376.52 141.918C375.547 139.428 374.031 137.466 371.934 136.144C369.85 134.829 367.322 134.228 364.452 134.228C361.535 134.228 358.969 134.827 356.859 136.138C354.734 137.458 353.198 139.421 352.223 141.918C350.38 146.528 349.52 153.247 349.52 161.919C349.52 170.704 350.381 177.526 352.22 182.237Z" fill="#4C5EFE" stroke="#4C5EFE" stroke-width="3.37662"/>
<path d="M239.261 59.7633C239.261 47.2688 249.389 37.14 261.884 37.14L417.82 37.14C457.173 37.14 489.075 69.042 489.075 108.395V264.329C489.075 276.825 478.945 286.955 466.45 286.955H261.886C249.39 286.955 239.261 276.825 239.261 264.329L239.261 59.7633Z" stroke="#4C5EFE" stroke-width="3.37662"/>
<path d="M472.982 24.3109C474.715 11.9371 486.151 3.31065 498.524 5.04324L652.954 26.6665C691.927 32.1235 719.097 68.1411 713.64 107.114L692.017 261.542C690.284 273.917 678.848 282.544 666.473 280.811L463.885 252.445C451.51 250.712 442.883 239.275 444.616 226.9L472.982 24.3109Z" fill="white"/>
<path d="M590.822 84.6809L627.729 89.8486L618.303 157.17L618.069 158.842L619.741 159.076L629.953 160.506L625.984 188.853L615.772 187.423L614.1 187.189L613.865 188.861L611.557 205.345L577.929 200.637L580.237 184.152L580.471 182.48L578.799 182.246L528.808 175.247L532.776 146.911L590.822 84.6809ZM591.459 125.643L592.244 120.036L588.516 124.298L566.876 149.036L564.82 151.386L567.913 151.819L585.739 154.315L587.411 154.55L587.645 152.878L591.459 125.643Z" fill="#4C5EFE" stroke="#4C5EFE" stroke-width="3.37662"/>
<path d="M472.982 24.3109C474.715 11.9371 486.151 3.31065 498.524 5.04324L652.954 26.6665C691.927 32.1235 719.097 68.1411 713.64 107.114L692.017 261.542C690.284 273.917 678.848 282.544 666.473 280.811L463.885 252.445C451.51 250.712 442.883 239.275 444.616 226.9L472.982 24.3109Z" stroke="#4C5EFE" stroke-width="3.37662"/>
</svg>
