<svg width="25" height="25" viewBox="0 0 25 25" fill="none" xmlns="http://www.w3.org/2000/svg">
<rect x="0.0078125" y="0.327759" width="24" height="24" rx="12" fill="#4C5EFE"/>
<path d="M18.5082 9.6723L10.673 17.5075C10.6036 17.5775 10.5091 17.6168 10.4105 17.6168C10.312 17.6168 10.2175 17.5775 10.1481 17.5075L6.16401 13.5234C6.09404 13.454 6.05469 13.3596 6.05469 13.2609C6.05469 13.1624 6.09404 13.0679 6.16401 12.9985L6.68143 12.4811C6.75082 12.4112 6.84529 12.3718 6.94384 12.3718C7.04238 12.3718 7.13685 12.4112 7.20624 12.4811L10.4068 15.6817L17.4659 8.62268C17.6121 8.48092 17.8445 8.48092 17.9907 8.62268L18.5082 9.14749C18.5782 9.21689 18.6175 9.31135 18.6175 9.4099C18.6175 9.50844 18.5782 9.6029 18.5082 9.6723Z" fill="white"/>
</svg>
