<svg width="36" height="37" viewBox="0 0 36 37" fill="none" xmlns="http://www.w3.org/2000/svg">
<path d="M6.39648 16.994V15.4914C6.39648 9.08966 11.593 3.89314 18.0026 3.89314C24.4121 3.89314 29.6008 9.08966 29.6008 15.4914V16.994" stroke="#4C5EFE" stroke-width="4" stroke-linecap="round" stroke-linejoin="round"/>
<path d="M5.73064 16.9942H9.97238V27.262H5.73064C4.11847 27.262 2.81934 25.9551 2.81934 24.3507V19.9133C2.81934 18.3012 4.12629 17.002 5.73064 17.002V16.9942Z" stroke="#4C5EFE" stroke-width="4" stroke-linecap="round" stroke-linejoin="round"/>
<path d="M30.2645 27.2617H26.0227V16.9939H30.2645C31.8767 16.9939 33.1758 18.3009 33.1758 19.9052V24.3426C33.1758 25.9548 31.8688 27.2539 30.2645 27.2539V27.2617Z" stroke="#4C5EFE" stroke-width="4" stroke-linecap="round" stroke-linejoin="round"/>
<path d="M29.6008 27.2617V31.0339C29.6008 32.3017 28.5755 33.327 27.3077 33.327H19.3125" stroke="#4C5EFE" stroke-width="4" stroke-linecap="round" stroke-linejoin="round"/>
</svg>
