<svg width="84" height="42" viewBox="0 0 84 42" fill="none" xmlns="http://www.w3.org/2000/svg">
<path d="M83.5004 20.8433V39.3761H78.7341V37.2997C77.5774 39.0314 75.7408 39.8949 73.2276 39.8949C71.2052 39.8949 69.539 39.2162 68.2197 37.8557C67.6049 37.222 67.1341 36.4766 66.8059 35.6177C68.1856 33.6329 69.1333 31.3856 69.5498 29.0575C69.7186 28.1179 69.5111 27.1705 68.9676 26.3862C68.4241 25.6034 67.6095 25.0785 66.6742 24.9108C66.5318 24.8859 66.3862 24.8673 66.2422 24.8595V20.8433H71.0101V31.6294C71.0101 32.8625 71.343 33.8084 72.0073 34.4638C72.6732 35.1207 73.5605 35.4469 74.6677 35.4469C75.8988 35.4469 76.8852 35.0648 77.6254 34.2976C78.364 33.5304 78.7341 32.3811 78.7341 30.8513V20.8433H83.5004Z" fill="#4C5EFE"/>
<path d="M10.7342 39.8946C7.9515 39.8946 5.62717 38.9566 3.7674 37.0774C1.90918 35.1981 0.978516 32.8778 0.978516 30.1087C0.978516 27.3396 1.90918 25.0193 3.76895 23.14C5.62717 21.2608 7.95305 20.3228 10.7357 20.3228C12.5351 20.3228 14.1719 20.7561 15.6507 21.6196C17.1296 22.4831 18.2492 23.6463 19.0141 25.1031L14.9121 27.512C14.542 26.7447 13.9814 26.1406 13.2304 25.6964C12.4809 25.2522 11.6339 25.0286 10.6986 25.0286C9.26775 25.0286 8.08622 25.5069 7.15092 26.4559C6.21561 27.4079 5.74641 28.624 5.74641 30.1071C5.74641 31.5903 6.21561 32.7691 7.15092 33.7212C8.08622 34.6732 9.26775 35.1484 10.6986 35.1484C11.6587 35.1484 12.5165 34.9341 13.2676 34.4993C14.0171 34.0659 14.5792 33.4696 14.9493 32.7023L19.0885 35.0739C18.2755 36.5307 17.1296 37.6986 15.6523 38.5761C14.1735 39.4551 12.5367 39.8915 10.7373 39.8915L10.7342 39.8946Z" fill="#4C5EFE"/>
<path d="M37.7352 23.8202C37.3635 22.9412 37.3573 21.9705 37.7151 21.0852C37.7491 21.0029 37.7847 20.9222 37.825 20.8429H35.3474V23.0297C33.9165 21.225 31.9097 20.3242 29.3236 20.3242C26.7376 20.3242 24.7477 21.2685 22.9855 23.1601C21.2233 25.0502 20.3438 27.3659 20.3438 30.1086C20.3438 32.8513 21.2233 35.1685 22.9855 37.0586C24.7477 38.9487 26.736 39.8946 29.3236 39.8946C31.9112 39.8946 33.9165 38.9938 35.3474 37.1891V39.3758H40.1153V27.5491C39.1289 26.4775 38.3283 25.2273 37.7352 23.8202ZM33.8871 33.8717C32.9162 34.8455 31.6882 35.3347 30.2109 35.3347C28.7336 35.3347 27.5119 34.8455 26.5518 33.8717C25.5901 32.8964 25.1101 31.6399 25.1101 30.1086C25.1101 28.5773 25.5901 27.3224 26.5518 26.3471C27.5119 25.3717 28.7321 24.8825 30.2109 24.8825C31.6898 24.8825 32.9162 25.3717 33.8871 26.3471C34.8596 27.3224 35.3474 28.5788 35.3474 30.1086C35.3474 31.6384 34.8596 32.8964 33.8871 33.8717Z" fill="#4C5EFE"/>
<path d="M66.4553 26.1329C66.3175 26.1081 66.1781 26.0956 66.0418 26.0956C64.9393 26.0956 63.9606 26.8877 63.7593 28.0152C63.3598 30.2439 62.1272 32.4617 60.3758 34.0987C58.722 35.6424 56.7832 36.5292 55.0551 36.5292C53.4415 36.5292 52.1965 36.0167 51.3557 35.0088C50.5055 33.9899 50.0735 32.471 50.1029 30.699C50.6108 30.7362 51.1296 30.7564 51.6623 30.7564C54.7624 30.7564 62.265 29.4037 64.9718 16.8828C64.978 16.8564 64.9826 16.8284 64.9888 16.8005L65.4921 13.9832C66.2664 9.6563 65.5525 5.78448 63.5317 3.36168C62.1396 1.69367 60.2457 0.811523 58.0577 0.811523C56.0694 0.811523 53.2541 1.53215 51.1249 4.96601C49.9124 6.92289 49.0127 9.6035 48.3763 13.1601L46.2657 24.9557C44.8379 24.19 43.7973 23.0438 43.1547 21.5218C42.78 20.6335 41.9205 20.0992 41.0146 20.0992C40.7142 20.0992 40.4076 20.1582 40.1119 20.284C38.9303 20.7841 38.3775 22.1508 38.8777 23.3358C40.1506 26.355 42.4284 28.5184 45.5007 29.7034C45.2452 32.9929 46.038 35.894 47.7925 37.9984C49.5331 40.0842 52.0448 41.1885 55.0551 41.1885C58.0654 41.1885 61.0014 39.8808 63.541 37.5077C66.0496 35.1641 67.7498 32.0859 68.3321 28.8384C68.5582 27.5711 67.7189 26.3612 66.4553 26.1329ZM52.9491 13.9832C54.4728 5.46921 57.1704 5.46921 58.0577 5.46921C58.8598 5.46921 59.4668 5.75031 59.9685 6.35135C61.0711 7.67302 61.435 10.2822 60.9209 13.1601L60.4238 15.9354C58.9976 22.4894 55.8866 26.0972 51.6623 26.0972C51.3619 26.0972 51.0707 26.0894 50.7843 26.0755L52.9491 13.9832Z" fill="#4C5EFE"/>
</svg>
