<svg width="84" height="42" viewBox="0 0 84 42" fill="none" xmlns="http://www.w3.org/2000/svg">
<path d="M83.5014 20.8633V39.3962H78.7351V37.3197C77.5783 39.0514 75.7418 39.9149 73.2285 39.9149C71.2062 39.9149 69.54 39.2362 68.2206 37.8757C67.6059 37.242 67.1351 36.4966 66.8068 35.6377C68.1866 33.6529 69.1343 31.4056 69.5508 29.0775C69.7196 28.1379 69.5121 27.1905 68.9686 26.4062C68.425 25.6235 67.6105 25.0985 66.6752 24.9308C66.5327 24.9059 66.3872 24.8873 66.2432 24.8795V20.8633H71.0111V31.6494C71.0111 32.8826 71.344 33.8284 72.0083 34.4838C72.6742 35.1407 73.5615 35.4669 74.6687 35.4669C75.8997 35.4669 76.8861 35.0848 77.6263 34.3176C78.365 33.5504 78.7351 32.4011 78.7351 30.8713V20.8633H83.5014V20.8633Z" fill="white"/>
<path d="M10.7349 39.9147C7.95224 39.9147 5.62791 38.9766 3.76813 37.0974C1.90991 35.2182 0.979248 32.8979 0.979248 30.1287C0.979248 27.3596 1.90991 25.0393 3.76968 23.1601C5.62791 21.2808 7.95378 20.3428 10.7365 20.3428C12.5359 20.3428 14.1726 20.7761 15.6515 21.6396C17.1303 22.5031 18.2499 23.6664 19.0149 25.1231L14.9128 27.532C14.5427 26.7648 13.9822 26.1606 13.2311 25.7164C12.4817 25.2722 11.6346 25.0486 10.6993 25.0486C9.26848 25.0486 8.08696 25.5269 7.15165 26.4759C6.21634 27.4279 5.74714 28.644 5.74714 30.1272C5.74714 31.6104 6.21634 32.7891 7.15165 33.7412C8.08696 34.6932 9.26848 35.1685 10.6993 35.1685C11.6594 35.1685 12.5173 34.9541 13.2683 34.5193C14.0178 34.086 14.5799 33.4896 14.95 32.7224L19.0892 35.0939C18.2762 36.5507 17.1303 37.7186 15.653 38.5961C14.1742 39.4751 12.5374 39.9116 10.738 39.9116L10.7349 39.9147Z" fill="white"/>
<path d="M37.7365 23.8402C37.3649 22.9612 37.3587 21.9905 37.7164 21.1052C37.7505 21.0229 37.7861 20.9422 37.8263 20.863H35.3487V23.0497C33.9179 21.245 31.911 20.3442 29.325 20.3442C26.7389 20.3442 24.7491 21.2885 22.9869 23.1802C21.2247 25.0703 20.3451 27.3859 20.3451 30.1286C20.3451 32.8714 21.2247 35.1886 22.9869 37.0787C24.7491 38.9688 26.7374 39.9146 29.325 39.9146C31.9125 39.9146 33.9179 39.0138 35.3487 37.2091V39.3958H40.1166V27.5692C39.1302 26.4975 38.3296 25.2473 37.7365 23.8402V23.8402ZM33.8885 33.8917C32.9175 34.8655 31.6896 35.3547 30.2123 35.3547C28.735 35.3547 27.5132 34.8655 26.5531 33.8917C25.5915 32.9164 25.1114 31.66 25.1114 30.1286C25.1114 28.5973 25.5915 27.3424 26.5531 26.3671C27.5132 25.3917 28.7334 24.9025 30.2123 24.9025C31.6911 24.9025 32.9175 25.3917 33.8885 26.3671C34.8609 27.3424 35.3487 28.5988 35.3487 30.1286C35.3487 31.6584 34.8609 32.9164 33.8885 33.8917Z" fill="white"/>
<path d="M66.4553 26.1529C66.3175 26.1281 66.1781 26.1157 66.0418 26.1157C64.9393 26.1157 63.9606 26.9077 63.7593 28.0353C63.3598 30.2639 62.1272 32.4817 60.3758 34.1187C58.722 35.6624 56.7832 36.5492 55.0551 36.5492C53.4415 36.5492 52.1965 36.0367 51.3557 35.0288C50.5055 34.01 50.0735 32.491 50.1029 30.719C50.6108 30.7563 51.1296 30.7764 51.6623 30.7764C54.7624 30.7764 62.265 29.4237 64.9718 16.9028C64.978 16.8764 64.9826 16.8484 64.9888 16.8205L65.4921 14.0032C66.2664 9.67632 65.5525 5.8045 63.5317 3.3817C62.1396 1.71369 60.2457 0.831543 58.0577 0.831543C56.0694 0.831543 53.2541 1.55217 51.1249 4.98603C49.9124 6.94291 49.0127 9.62352 48.3763 13.1801L46.2657 24.9757C44.8379 24.21 43.7973 23.0639 43.1547 21.5418C42.78 20.6535 41.9205 20.1192 41.0146 20.1192C40.7142 20.1192 40.4076 20.1782 40.1119 20.304C38.9303 20.8041 38.3775 22.1708 38.8777 23.3558C40.1506 26.375 42.4284 28.5385 45.5007 29.7235C45.2452 33.0129 46.038 35.914 47.7925 38.0185C49.5331 40.1042 52.0448 41.2085 55.0551 41.2085C58.0654 41.2085 61.0014 39.9008 63.541 37.5277C66.0496 35.1841 67.7498 32.1059 68.3321 28.8584C68.5582 27.5911 67.7189 26.3812 66.4553 26.1529V26.1529ZM52.9491 14.0032C54.4728 5.48922 57.1704 5.48923 58.0577 5.48923C58.8598 5.48923 59.4668 5.77033 59.9685 6.37137C61.0711 7.69304 61.435 10.3022 60.9209 13.1801L60.4238 15.9554C58.9976 22.5094 55.8866 26.1172 51.6623 26.1172C51.3619 26.1172 51.0707 26.1094 50.7843 26.0955L52.9491 14.0032V14.0032Z" fill="white"/>
</svg>
