<svg width="84" height="84" viewBox="0 0 84 84" fill="none" xmlns="http://www.w3.org/2000/svg">
<rect width="84" height="84" rx="42" fill="#ADF39E"/>
<path d="M55.5 41.25C55.5052 43.2298 55.0426 45.1829 54.15 46.95C53.0916 49.0677 51.4646 50.8488 49.4512 52.094C47.4377 53.3391 45.1174 53.9991 42.75 54C40.7702 54.0052 38.8172 53.5426 37.05 52.65L28.5 55.5L31.35 46.95C30.4574 45.1829 29.9948 43.2298 30 41.25C30.0009 38.8827 30.6609 36.5623 31.9061 34.5489C33.1512 32.5354 34.9324 30.9084 37.05 29.85C38.8172 28.9574 40.7702 28.4949 42.75 28.5H43.5C46.6265 28.6725 49.5796 29.9922 51.7937 32.2063C54.0079 34.4205 55.3275 37.3735 55.5 40.5V41.25Z" stroke="#4C5EFE" stroke-width="4" stroke-linecap="round" stroke-linejoin="round"/>
</svg>
